<svg xmlns="http://www.w3.org/2000/svg" xmlns:xlink="http://www.w3.org/1999/xlink" width="341" zoomAndPan="magnify" viewBox="0 0 255.75 74.999997" height="100" preserveAspectRatio="xMidYMid meet" version="1.0"><defs><g/><clipPath id="9afd2fcb29"><path d="M 0 0.0351562 L 71.707031 0.0351562 L 71.707031 72.714844 L 0 72.714844 Z M 0 0.0351562 " clip-rule="nonzero"/></clipPath><clipPath id="0c901bc315"><path d="M 55 0.0351562 L 185 0.0351562 L 185 19.515625 L 55 19.515625 Z M 55 0.0351562 " clip-rule="nonzero"/></clipPath></defs><g clip-path="url(#9afd2fcb29)"><path fill="#1c1a1a" d="M 17.046875 13.363281 L 15.566406 13.335938 L 12.613281 13.289062 L 9.65625 13.238281 L 8.179688 13.210938 L 7.445312 13.199219 L 7.0625 13.199219 C 6.875 13.199219 6.6875 13.210938 6.515625 13.210938 C 5.78125 13.273438 5.050781 13.460938 4.355469 13.746094 C 3.671875 14.03125 3.039062 14.453125 2.492188 14.953125 C 1.945312 15.449219 1.472656 16.03125 1.101562 16.691406 C 0.726562 17.347656 0.480469 18.066406 0.332031 18.800781 C 0.304688 18.988281 0.269531 19.171875 0.257812 19.347656 C 0.242188 19.535156 0.230469 19.71875 0.230469 19.894531 L 0.21875 20.664062 L 0.207031 22.140625 L 0.179688 25.097656 L 0.121094 30.996094 L 0.0585938 42.804688 L 0.0585938 54.628906 L 0.0820312 60.527344 L 0.09375 63.484375 L 0.09375 64.625 C 0.105469 64.8125 0.105469 65.011719 0.121094 65.195312 C 0.207031 65.941406 0.40625 66.675781 0.726562 67.371094 C 1.347656 68.746094 2.453125 69.867188 3.769531 70.5625 C 4.429688 70.910156 5.160156 71.144531 5.894531 71.246094 C 6.265625 71.304688 6.640625 71.320312 7.011719 71.332031 L 7.746094 71.320312 L 13.667969 71.144531 L 16.625 71.058594 L 18.101562 71.007812 C 18.363281 71.007812 18.5625 70.996094 18.773438 70.996094 C 18.984375 70.996094 19.195312 70.996094 19.394531 71.007812 C 20.238281 71.03125 21.070312 71.15625 21.902344 71.378906 C 22.113281 71.429688 22.3125 71.492188 22.511719 71.554688 L 23.21875 71.765625 L 23.964844 71.988281 C 24.234375 72.0625 24.496094 72.136719 24.769531 72.199219 C 25.851562 72.460938 26.96875 72.597656 28.085938 72.609375 C 28.222656 72.609375 28.359375 72.609375 28.496094 72.609375 L 28.894531 72.597656 L 29.625 72.585938 L 31.105469 72.535156 L 37.003906 72.363281 L 42.902344 72.164062 L 44.378906 72.101562 L 45.113281 72.078125 L 45.496094 72.0625 L 45.90625 72.050781 C 47.011719 71.976562 48.09375 71.765625 49.121094 71.394531 C 50.164062 71.046875 51.121094 70.546875 52.027344 69.953125 C 52.203125 69.839844 52.5 69.617188 52.824219 69.382812 C 53.570312 68.835938 54.460938 68.523438 55.382812 68.476562 C 56.859375 68.398438 58.363281 68.339844 59.851562 68.25 L 65.75 67.929688 C 67.726562 67.804688 69.675781 67.703125 71.648438 67.542969 C 69.675781 67.40625 67.699219 67.296875 65.75 67.160156 L 59.851562 66.847656 C 58.449219 66.773438 57.058594 66.710938 55.640625 66.648438 C 55.355469 66.636719 54.203125 66.625 53.742188 66.722656 C 52.972656 66.910156 51.085938 67.917969 50.847656 68.039062 C 50.066406 68.460938 49.246094 68.808594 48.390625 69.019531 C 47.535156 69.230469 46.664062 69.34375 45.792969 69.34375 L 45.472656 69.34375 L 45.097656 69.332031 L 44.367188 69.308594 L 42.890625 69.246094 L 36.988281 69.046875 L 31.089844 68.871094 L 29.613281 68.824219 L 28.878906 68.808594 L 28.546875 68.796875 C 28.433594 68.796875 28.335938 68.785156 28.222656 68.785156 C 27.367188 68.722656 26.519531 68.585938 25.714844 68.363281 C 25.515625 68.300781 25.304688 68.238281 25.105469 68.175781 L 24.445312 67.953125 L 23.765625 67.703125 C 23.503906 67.617188 23.230469 67.519531 22.96875 67.445312 C 21.902344 67.121094 20.785156 66.910156 19.667969 66.796875 C 19.394531 66.773438 19.09375 66.75 18.820312 66.75 C 18.546875 66.734375 18.238281 66.734375 18.015625 66.734375 L 16.550781 66.734375 L 13.59375 66.722656 L 7.695312 66.710938 L 6.960938 66.710938 C 6.835938 66.699219 6.738281 66.699219 6.613281 66.660156 C 6.390625 66.613281 6.15625 66.539062 5.945312 66.414062 C 5.546875 66.164062 5.199219 65.804688 5.023438 65.371094 C 4.9375 65.160156 4.886719 64.921875 4.851562 64.699219 C 4.851562 64.636719 4.851562 64.574219 4.851562 64.527344 L 4.851562 63.507812 L 4.875 60.550781 L 4.960938 54.652344 L 5.023438 42.832031 L 5.023438 31.007812 L 5 25.109375 L 4.988281 22.152344 L 4.976562 20.675781 L 4.976562 19.957031 C 4.976562 19.894531 4.976562 19.832031 4.976562 19.769531 C 4.976562 19.707031 4.988281 19.644531 4.988281 19.597656 C 5.097656 18.664062 5.929688 17.855469 6.898438 17.757812 C 6.960938 17.757812 7.023438 17.757812 7.085938 17.746094 C 7.097656 17.746094 7.136719 17.746094 7.160156 17.746094 L 7.433594 17.746094 L 8.167969 17.734375 L 9.644531 17.707031 L 12.601562 17.660156 L 15.554688 17.609375 L 17.035156 17.582031 L 17.765625 17.570312 L 18.214844 17.558594 C 18.488281 17.546875 18.746094 17.507812 19.007812 17.433594 C 20.0625 17.175781 20.96875 16.441406 21.453125 15.496094 C 21.515625 15.375 21.578125 15.25 21.628906 15.125 C 21.652344 15.050781 21.652344 15.050781 21.679688 15 L 21.703125 14.914062 L 21.828125 14.566406 L 22.074219 13.882812 L 23.070312 11.101562 L 24.0625 8.320312 L 24.546875 6.929688 L 24.796875 6.222656 L 24.855469 6.046875 L 24.90625 5.921875 C 24.929688 5.847656 24.96875 5.75 24.992188 5.699219 C 25.265625 5.078125 25.714844 4.519531 26.261719 4.109375 C 26.832031 3.699219 27.464844 3.402344 28.183594 3.316406 C 28.273438 3.300781 28.359375 3.300781 28.445312 3.289062 L 28.582031 3.277344 C 28.632812 3.277344 28.707031 3.277344 28.769531 3.277344 L 29.5 3.253906 L 30.980469 3.203125 L 33.949219 3.140625 L 39.859375 2.90625 L 41.335938 2.84375 C 41.808594 2.832031 42.355469 2.792969 42.726562 2.792969 C 43.125 2.804688 43.535156 2.867188 43.933594 2.980469 C 44.328125 3.105469 44.714844 3.253906 45.074219 3.4375 C 45.421875 3.636719 45.78125 3.898438 46.082031 4.171875 C 46.390625 4.457031 46.664062 4.78125 46.886719 5.140625 C 47.109375 5.488281 47.296875 5.886719 47.457031 6.28125 L 47.957031 7.675781 L 49.929688 13.25 C 50.601562 15.101562 51.257812 16.964844 51.964844 18.800781 C 51.558594 16.875 51.097656 14.953125 50.648438 13.039062 L 49.273438 7.289062 L 48.9375 5.847656 C 48.800781 5.316406 48.601562 4.792969 48.339844 4.285156 C 48.078125 3.800781 47.757812 3.316406 47.371094 2.894531 C 46.988281 2.484375 46.566406 2.097656 46.105469 1.761719 C 45.632812 1.441406 45.125 1.179688 44.578125 0.96875 C 44.042969 0.769531 43.460938 0.644531 42.902344 0.570312 C 42.28125 0.507812 41.84375 0.507812 41.335938 0.496094 L 39.859375 0.433594 L 33.960938 0.222656 L 31.003906 0.109375 L 29.527344 0.0625 L 28.792969 0.0351562 L 28.382812 0.0351562 C 28.234375 0.0351562 28.0625 0.0351562 27.910156 0.0507812 C 26.65625 0.136719 25.414062 0.570312 24.347656 1.253906 C 23.292969 1.960938 22.386719 2.929688 21.789062 4.085938 C 21.714844 4.222656 21.652344 4.371094 21.578125 4.53125 L 21.492188 4.742188 L 21.417969 4.917969 L 21.132812 5.601562 L 20.558594 6.964844 L 19.429688 9.699219 L 18.152344 12.628906 C 17.941406 13.089844 17.519531 13.386719 17.046875 13.363281 " fill-opacity="1" fill-rule="nonzero"/></g><path fill="#000000" d="M 52.289062 33.640625 C 51.46875 31.976562 50.351562 30.386719 48.925781 29.058594 L 48.390625 28.574219 C 48.203125 28.425781 48.015625 28.265625 47.820312 28.113281 C 47.445312 27.792969 47.035156 27.53125 46.640625 27.246094 C 45.820312 26.710938 44.960938 26.226562 44.042969 25.816406 C 43.597656 25.605469 43.125 25.445312 42.652344 25.269531 C 42.429688 25.183594 42.179688 25.121094 41.933594 25.046875 C 41.683594 24.984375 41.460938 24.898438 41.210938 24.847656 C 40.726562 24.738281 40.230469 24.601562 39.734375 24.539062 C 39.484375 24.488281 39.226562 24.464844 38.988281 24.414062 L 38.246094 24.339844 C 37.238281 24.253906 36.207031 24.253906 35.203125 24.339844 C 34.183594 24.425781 33.164062 24.589844 32.160156 24.847656 C 31.164062 25.109375 30.183594 25.445312 29.226562 25.867188 C 28.285156 26.277344 27.367188 26.796875 26.496094 27.371094 C 24.734375 28.5 23.207031 29.964844 21.914062 31.617188 C 21.253906 32.4375 20.710938 33.34375 20.199219 34.261719 C 19.691406 35.191406 19.269531 36.160156 18.933594 37.167969 C 18.597656 38.160156 18.335938 39.203125 18.164062 40.234375 C 17.988281 41.277344 17.902344 42.332031 17.902344 43.390625 C 17.914062 44.445312 17.988281 45.5 18.164062 46.542969 C 18.335938 47.585938 18.585938 48.617188 18.933594 49.609375 C 19.269531 50.617188 19.703125 51.585938 20.199219 52.515625 C 20.710938 53.449219 21.269531 54.34375 21.914062 55.164062 C 24.484375 58.476562 28.148438 60.925781 32.160156 61.929688 C 33.152344 62.191406 34.183594 62.339844 35.203125 62.441406 C 36.21875 62.527344 37.25 62.527344 38.257812 62.441406 L 39 62.363281 C 39.25 62.339844 39.511719 62.289062 39.746094 62.242188 C 40.257812 62.179688 40.742188 62.054688 41.226562 61.929688 C 41.472656 61.878906 41.707031 61.792969 41.945312 61.71875 C 42.191406 61.644531 42.417969 61.582031 42.664062 61.496094 C 43.136719 61.308594 43.609375 61.160156 44.054688 60.949219 C 44.976562 60.550781 45.832031 60.042969 46.652344 59.519531 C 47.050781 59.234375 47.457031 58.976562 47.832031 58.652344 C 48.015625 58.503906 48.214844 58.339844 48.402344 58.191406 L 48.9375 57.707031 C 50.339844 56.390625 51.457031 54.800781 52.300781 53.125 C 49.769531 55.882812 46.613281 57.820312 43.25 58.652344 C 41.585938 59.097656 39.871094 59.234375 38.183594 59.160156 C 36.503906 59.085938 34.867188 58.738281 33.3125 58.179688 C 31.773438 57.597656 30.332031 56.8125 29.042969 55.820312 C 27.761719 54.828125 26.644531 53.648438 25.726562 52.34375 C 24.820312 51.027344 24.074219 49.585938 23.628906 48.070312 C 23.402344 47.328125 23.207031 46.542969 23.082031 45.761719 C 22.957031 44.980469 22.90625 44.183594 22.894531 43.390625 C 22.894531 42.59375 22.957031 41.800781 23.070312 41.019531 C 23.191406 40.234375 23.378906 39.453125 23.613281 38.707031 C 24.074219 37.179688 24.808594 35.753906 25.714844 34.4375 C 26.632812 33.121094 27.761719 31.941406 29.03125 30.945312 C 30.308594 29.953125 31.75 29.15625 33.300781 28.585938 C 34.839844 28.015625 36.480469 27.679688 38.183594 27.605469 C 39.859375 27.53125 41.574219 27.667969 43.25 28.113281 C 46.613281 28.933594 49.742188 30.898438 52.289062 33.640625 " fill-opacity="1" fill-rule="nonzero"/><path fill="#000000" d="M 31.800781 37.144531 C 32.183594 36.695312 32.570312 36.273438 33.003906 35.890625 C 33.203125 35.691406 33.425781 35.503906 33.660156 35.316406 C 33.886719 35.144531 34.121094 34.96875 34.34375 34.808594 C 34.816406 34.484375 35.3125 34.226562 35.808594 33.988281 C 36.320312 33.765625 36.828125 33.542969 37.375 33.40625 C 38.429688 33.082031 39.535156 32.984375 40.605469 33.007812 C 41.683594 33.070312 42.738281 33.269531 43.734375 33.617188 C 44.726562 34 45.644531 34.523438 46.488281 35.179688 L 46.800781 35.429688 C 46.914062 35.503906 47.011719 35.601562 47.085938 35.691406 C 47.273438 35.875 47.457031 36.0625 47.65625 36.238281 L 48.167969 36.832031 L 48.289062 36.980469 L 48.402344 37.15625 L 48.625 37.476562 C 49.210938 38.347656 49.679688 39.277344 49.96875 40.296875 C 50.253906 41.289062 50.414062 42.332031 50.425781 43.390625 C 50.414062 44.433594 50.253906 45.464844 49.96875 46.480469 C 49.679688 47.488281 49.183594 48.417969 48.625 49.300781 L 48.402344 49.625 L 48.289062 49.796875 L 48.167969 49.945312 L 47.65625 50.542969 C 47.472656 50.730469 47.273438 50.914062 47.085938 51.089844 C 47 51.175781 46.886719 51.273438 46.800781 51.351562 L 46.488281 51.597656 C 45.671875 52.242188 44.726562 52.777344 43.734375 53.164062 C 42.738281 53.511719 41.671875 53.710938 40.605469 53.769531 C 39.523438 53.796875 38.429688 53.683594 37.375 53.375 C 36.839844 53.238281 36.332031 53.027344 35.808594 52.789062 C 35.300781 52.542969 34.816406 52.269531 34.34375 51.96875 C 34.097656 51.820312 33.886719 51.636719 33.660156 51.460938 C 33.449219 51.273438 33.214844 51.113281 33.003906 50.890625 C 32.554688 50.503906 32.195312 50.082031 31.800781 49.636719 C 32.332031 50.679688 33.054688 51.660156 33.933594 52.46875 L 34.269531 52.777344 C 34.382812 52.863281 34.492188 52.964844 34.617188 53.0625 C 34.839844 53.261719 35.101562 53.410156 35.351562 53.597656 C 35.871094 53.921875 36.40625 54.21875 36.976562 54.464844 C 38.109375 54.976562 39.335938 55.25 40.589844 55.335938 C 41.84375 55.398438 43.113281 55.273438 44.339844 54.9375 C 45.570312 54.589844 46.726562 54.019531 47.769531 53.285156 L 48.152344 53.015625 C 48.277344 52.925781 48.414062 52.828125 48.539062 52.726562 L 49.257812 52.082031 C 49.46875 51.859375 49.679688 51.609375 49.917969 51.375 L 50.089844 51.1875 L 50.242188 51.003906 L 50.527344 50.617188 C 50.613281 50.492188 50.726562 50.355469 50.8125 50.230469 L 51.058594 49.824219 C 51.234375 49.550781 51.394531 49.277344 51.53125 48.976562 C 51.667969 48.691406 51.816406 48.394531 51.941406 48.109375 L 52.277344 47.203125 C 52.660156 45.972656 52.859375 44.695312 52.875 43.414062 C 52.847656 42.136719 52.660156 40.84375 52.277344 39.625 L 51.941406 38.71875 C 51.816406 38.433594 51.667969 38.136719 51.53125 37.851562 C 51.40625 37.566406 51.222656 37.28125 51.058594 37.007812 L 50.8125 36.597656 C 50.726562 36.460938 50.625 36.335938 50.527344 36.210938 L 50.242188 35.828125 L 50.089844 35.640625 L 49.917969 35.453125 C 49.707031 35.230469 49.496094 34.980469 49.257812 34.746094 L 48.539062 34.101562 C 48.414062 33.988281 48.289062 33.902344 48.152344 33.816406 L 47.769531 33.542969 C 46.726562 32.808594 45.570312 32.238281 44.339844 31.890625 C 43.113281 31.554688 41.84375 31.429688 40.589844 31.492188 C 39.335938 31.566406 38.121094 31.863281 36.976562 32.363281 C 36.40625 32.609375 35.871094 32.910156 35.351562 33.230469 C 34.839844 33.578125 34.355469 33.9375 33.921875 34.359375 C 33.054688 35.144531 32.332031 36.101562 31.800781 37.144531 " fill-opacity="1" fill-rule="nonzero"/><g fill="#000000" fill-opacity="1"><g transform="translate(63.565423, 52.849887)"><g><path d="M 2.234375 0 L 2.234375 -25.640625 L 12.34375 -25.640625 C 15.257812 -25.640625 17.519531 -24.878906 19.125 -23.359375 C 20.738281 -21.847656 21.546875 -19.816406 21.546875 -17.265625 C 21.546875 -15.515625 21.15625 -14.015625 20.375 -12.765625 C 19.59375 -11.523438 18.46875 -10.59375 17 -9.96875 L 22.453125 0 L 16.46875 0 L 11.609375 -9.09375 L 7.65625 -9.09375 L 7.65625 0 Z M 7.65625 -13.453125 L 11.328125 -13.453125 C 14.410156 -13.453125 15.953125 -14.722656 15.953125 -17.265625 C 15.953125 -19.898438 14.40625 -21.21875 11.3125 -21.21875 L 7.65625 -21.21875 Z M 7.65625 -13.453125 "/></g></g></g><g fill="#000000" fill-opacity="1"><g transform="translate(86.706226, 52.849887)"><g><path d="M 10.890625 0.375 C 8.921875 0.375 7.222656 -0.0234375 5.796875 -0.828125 C 4.367188 -1.640625 3.269531 -2.785156 2.5 -4.265625 C 1.738281 -5.742188 1.359375 -7.5 1.359375 -9.53125 C 1.359375 -11.507812 1.738281 -13.242188 2.5 -14.734375 C 3.269531 -16.234375 4.351562 -17.398438 5.75 -18.234375 C 7.15625 -19.066406 8.800781 -19.484375 10.6875 -19.484375 C 12.375 -19.484375 13.898438 -19.125 15.265625 -18.40625 C 16.628906 -17.6875 17.710938 -16.601562 18.515625 -15.15625 C 19.316406 -13.707031 19.71875 -11.894531 19.71875 -9.71875 L 19.71875 -8.25 L 6.625 -8.25 L 6.625 -8.234375 C 6.625 -6.804688 7.015625 -5.675781 7.796875 -4.84375 C 8.585938 -4.019531 9.648438 -3.609375 10.984375 -3.609375 C 11.878906 -3.609375 12.648438 -3.796875 13.296875 -4.171875 C 13.953125 -4.546875 14.410156 -5.097656 14.671875 -5.828125 L 19.609375 -5.515625 C 19.234375 -3.722656 18.28125 -2.289062 16.75 -1.21875 C 15.226562 -0.15625 13.273438 0.375 10.890625 0.375 Z M 6.625 -11.5625 L 14.703125 -11.5625 C 14.691406 -12.707031 14.320312 -13.648438 13.59375 -14.390625 C 12.875 -15.128906 11.929688 -15.5 10.765625 -15.5 C 9.578125 -15.5 8.601562 -15.113281 7.84375 -14.34375 C 7.09375 -13.582031 6.6875 -12.65625 6.625 -11.5625 Z M 6.625 -11.5625 "/></g></g></g><g fill="#000000" fill-opacity="1"><g transform="translate(107.780885, 52.849887)"><g><path d="M 10.8125 0.375 C 8.84375 0.375 7.148438 -0.0390625 5.734375 -0.875 C 4.328125 -1.71875 3.242188 -2.882812 2.484375 -4.375 C 1.734375 -5.875 1.359375 -7.597656 1.359375 -9.546875 C 1.359375 -11.515625 1.738281 -13.242188 2.5 -14.734375 C 3.257812 -16.222656 4.34375 -17.382812 5.75 -18.21875 C 7.164062 -19.0625 8.847656 -19.484375 10.796875 -19.484375 C 12.472656 -19.484375 13.941406 -19.175781 15.203125 -18.5625 C 16.472656 -17.957031 17.472656 -17.101562 18.203125 -16 C 18.929688 -14.90625 19.332031 -13.613281 19.40625 -12.125 L 14.375 -12.125 C 14.226562 -13.082031 13.851562 -13.851562 13.25 -14.4375 C 12.644531 -15.03125 11.859375 -15.328125 10.890625 -15.328125 C 9.648438 -15.328125 8.65625 -14.828125 7.90625 -13.828125 C 7.15625 -12.835938 6.78125 -11.4375 6.78125 -9.625 C 6.78125 -7.78125 7.148438 -6.351562 7.890625 -5.34375 C 8.640625 -4.34375 9.640625 -3.84375 10.890625 -3.84375 C 11.804688 -3.84375 12.578125 -4.117188 13.203125 -4.671875 C 13.828125 -5.234375 14.21875 -6.023438 14.375 -7.046875 L 19.40625 -7.046875 C 19.320312 -5.578125 18.921875 -4.28125 18.203125 -3.15625 C 17.492188 -2.039062 16.515625 -1.171875 15.265625 -0.546875 C 14.015625 0.0664062 12.53125 0.375 10.8125 0.375 Z M 10.8125 0.375 "/></g></g></g><g fill="#000000" fill-opacity="1"><g transform="translate(128.4924, 52.849887)"><g><path d="M 2.125 0 L 2.125 -19.234375 L 7.46875 -19.234375 L 7.46875 0 Z M 4.8125 -21.71875 C 4.019531 -21.71875 3.335938 -21.984375 2.765625 -22.515625 C 2.203125 -23.046875 1.921875 -23.679688 1.921875 -24.421875 C 1.921875 -25.160156 2.203125 -25.789062 2.765625 -26.3125 C 3.335938 -26.84375 4.019531 -27.109375 4.8125 -27.109375 C 5.601562 -27.109375 6.28125 -26.84375 6.84375 -26.3125 C 7.414062 -25.789062 7.703125 -25.160156 7.703125 -24.421875 C 7.703125 -23.679688 7.414062 -23.046875 6.84375 -22.515625 C 6.28125 -21.984375 5.601562 -21.71875 4.8125 -21.71875 Z M 4.8125 -21.71875 "/></g></g></g><g fill="#000000" fill-opacity="1"><g transform="translate(138.084308, 52.849887)"><g><path d="M 2.125 7.21875 L 2.125 -19.234375 L 7.390625 -19.234375 L 7.390625 -16 L 7.625 -16 C 7.863281 -16.53125 8.203125 -17.0625 8.640625 -17.59375 C 9.085938 -18.125 9.675781 -18.570312 10.40625 -18.9375 C 11.132812 -19.300781 12.03125 -19.484375 13.09375 -19.484375 C 14.507812 -19.484375 15.804688 -19.117188 16.984375 -18.390625 C 18.160156 -17.660156 19.101562 -16.5625 19.8125 -15.09375 C 20.53125 -13.632812 20.890625 -11.800781 20.890625 -9.59375 C 20.890625 -7.445312 20.539062 -5.632812 19.84375 -4.15625 C 19.15625 -2.6875 18.222656 -1.570312 17.046875 -0.8125 C 15.867188 -0.0625 14.550781 0.3125 13.09375 0.3125 C 12.050781 0.3125 11.171875 0.140625 10.453125 -0.203125 C 9.734375 -0.546875 9.144531 -0.976562 8.6875 -1.5 C 8.226562 -2.019531 7.875 -2.546875 7.625 -3.078125 L 7.46875 -3.078125 L 7.46875 7.21875 Z M 7.34375 -9.625 C 7.34375 -7.90625 7.695312 -6.523438 8.40625 -5.484375 C 9.113281 -4.453125 10.109375 -3.9375 11.390625 -3.9375 C 12.703125 -3.9375 13.703125 -4.460938 14.390625 -5.515625 C 15.085938 -6.566406 15.4375 -7.9375 15.4375 -9.625 C 15.4375 -11.289062 15.09375 -12.640625 14.40625 -13.671875 C 13.71875 -14.710938 12.710938 -15.234375 11.390625 -15.234375 C 10.097656 -15.234375 9.097656 -14.726562 8.390625 -13.71875 C 7.691406 -12.707031 7.34375 -11.34375 7.34375 -9.625 Z M 7.34375 -9.625 "/></g></g></g><g fill="#000000" fill-opacity="1"><g transform="translate(160.38613, 52.849887)"><g><path d="M 2.125 0 L 2.125 -19.234375 L 7.46875 -19.234375 L 7.46875 0 Z M 4.8125 -21.71875 C 4.019531 -21.71875 3.335938 -21.984375 2.765625 -22.515625 C 2.203125 -23.046875 1.921875 -23.679688 1.921875 -24.421875 C 1.921875 -25.160156 2.203125 -25.789062 2.765625 -26.3125 C 3.335938 -26.84375 4.019531 -27.109375 4.8125 -27.109375 C 5.601562 -27.109375 6.28125 -26.84375 6.84375 -26.3125 C 7.414062 -25.789062 7.703125 -25.160156 7.703125 -24.421875 C 7.703125 -23.679688 7.414062 -23.046875 6.84375 -22.515625 C 6.28125 -21.984375 5.601562 -21.71875 4.8125 -21.71875 Z M 4.8125 -21.71875 "/></g></g></g><g fill="#000000" fill-opacity="1"><g transform="translate(169.978038, 52.849887)"><g><path d="M 10.8125 0.375 C 8.84375 0.375 7.148438 -0.0390625 5.734375 -0.875 C 4.328125 -1.71875 3.242188 -2.882812 2.484375 -4.375 C 1.734375 -5.875 1.359375 -7.597656 1.359375 -9.546875 C 1.359375 -11.515625 1.738281 -13.242188 2.5 -14.734375 C 3.257812 -16.222656 4.34375 -17.382812 5.75 -18.21875 C 7.164062 -19.0625 8.847656 -19.484375 10.796875 -19.484375 C 12.472656 -19.484375 13.941406 -19.175781 15.203125 -18.5625 C 16.472656 -17.957031 17.472656 -17.101562 18.203125 -16 C 18.929688 -14.90625 19.332031 -13.613281 19.40625 -12.125 L 14.375 -12.125 C 14.226562 -13.082031 13.851562 -13.851562 13.25 -14.4375 C 12.644531 -15.03125 11.859375 -15.328125 10.890625 -15.328125 C 9.648438 -15.328125 8.65625 -14.828125 7.90625 -13.828125 C 7.15625 -12.835938 6.78125 -11.4375 6.78125 -9.625 C 6.78125 -7.78125 7.148438 -6.351562 7.890625 -5.34375 C 8.640625 -4.34375 9.640625 -3.84375 10.890625 -3.84375 C 11.804688 -3.84375 12.578125 -4.117188 13.203125 -4.671875 C 13.828125 -5.234375 14.21875 -6.023438 14.375 -7.046875 L 19.40625 -7.046875 C 19.320312 -5.578125 18.921875 -4.28125 18.203125 -3.15625 C 17.492188 -2.039062 16.515625 -1.171875 15.265625 -0.546875 C 14.015625 0.0664062 12.53125 0.375 10.8125 0.375 Z M 10.8125 0.375 "/></g></g></g><g fill="#000000" fill-opacity="1"><g transform="translate(190.689553, 52.849887)"><g><path d="M 18.140625 -13.75 L 13.25 -13.453125 C 13.113281 -14.066406 12.773438 -14.59375 12.234375 -15.03125 C 11.691406 -15.476562 10.957031 -15.703125 10.03125 -15.703125 C 9.207031 -15.703125 8.507812 -15.53125 7.9375 -15.1875 C 7.363281 -14.84375 7.082031 -14.378906 7.09375 -13.796875 C 7.082031 -13.335938 7.257812 -12.945312 7.625 -12.625 C 8 -12.3125 8.632812 -12.0625 9.53125 -11.875 L 13.015625 -11.171875 C 16.710938 -10.410156 18.566406 -8.675781 18.578125 -5.96875 C 18.578125 -4.695312 18.207031 -3.585938 17.46875 -2.640625 C 16.726562 -1.691406 15.710938 -0.953125 14.421875 -0.421875 C 13.140625 0.109375 11.664062 0.375 10 0.375 C 7.457031 0.375 5.429688 -0.15625 3.921875 -1.21875 C 2.410156 -2.28125 1.53125 -3.734375 1.28125 -5.578125 L 6.53125 -5.84375 C 6.695312 -5.0625 7.082031 -4.46875 7.6875 -4.0625 C 8.289062 -3.664062 9.066406 -3.46875 10.015625 -3.46875 C 10.953125 -3.46875 11.707031 -3.648438 12.28125 -4.015625 C 12.851562 -4.390625 13.144531 -4.859375 13.15625 -5.421875 C 13.125 -6.367188 12.300781 -7.007812 10.6875 -7.34375 L 7.34375 -8 C 3.625 -8.738281 1.773438 -10.570312 1.796875 -13.5 C 1.785156 -15.351562 2.523438 -16.8125 4.015625 -17.875 C 5.503906 -18.945312 7.476562 -19.484375 9.9375 -19.484375 C 12.375 -19.484375 14.289062 -18.96875 15.6875 -17.9375 C 17.082031 -16.914062 17.898438 -15.519531 18.140625 -13.75 Z M 18.140625 -13.75 "/></g></g></g><g clip-path="url(#0c901bc315)"><path fill="#000000" d="M 55.957031 19.085938 C 63.9375 14.960938 73.242188 14.011719 82.089844 13.792969 C 91.613281 13.550781 101.113281 14.175781 110.582031 15.042969 C 120.164062 15.9375 129.714844 17.050781 139.320312 17.730469 C 144.097656 18.054688 148.902344 18.246094 153.703125 18.273438 C 158.207031 18.300781 162.765625 18.328125 167.273438 17.785156 C 171.804688 17.242188 176.335938 15.964844 179.808594 12.84375 C 182.847656 10.105469 185.046875 5.925781 184.207031 1.773438 C 183.851562 0.0351562 181.140625 0.445312 181.140625 2.179688 C 181.167969 5.871094 179.726562 8.992188 176.878906 11.324219 C 173.675781 13.957031 169.390625 14.878906 165.398438 15.367188 C 156.335938 16.425781 147.109375 16.074219 138.019531 15.449219 C 119.566406 14.148438 101.167969 11.136719 82.632812 11.785156 C 73.1875 12.085938 63.636719 13.171875 55.414062 18.164062 C 54.816406 18.515625 55.332031 19.414062 55.957031 19.085938 Z M 55.957031 19.085938 " fill-opacity="1" fill-rule="nonzero"/></g><path fill="#000000" d="M 59.539062 13.0625 C 67.625 10.105469 75.984375 9.398438 84.53125 9.34375 C 84.992188 9.34375 85.15625 8.558594 84.640625 8.503906 C 76.09375 7.226562 67.191406 9.261719 59.351562 12.710938 C 59.1875 12.789062 59.324219 13.144531 59.539062 13.0625 Z M 59.539062 13.0625 " fill-opacity="1" fill-rule="nonzero"/><path fill="#000000" d="M 176.632812 17.8125 C 179.753906 17.378906 182.632812 15.882812 184.800781 13.632812 C 185.914062 12.492188 186.863281 11.191406 187.515625 9.75 C 188.058594 8.613281 189.0625 6.578125 188.25 5.410156 C 187.867188 4.867188 187.21875 4.785156 186.730469 5.21875 C 185.804688 6.007812 185.941406 7.796875 185.5625 8.9375 C 185.128906 10.238281 184.503906 11.460938 183.71875 12.574219 C 181.953125 14.988281 179.429688 16.753906 176.554688 17.539062 C 176.363281 17.566406 176.445312 17.839844 176.632812 17.8125 Z M 176.632812 17.8125 " fill-opacity="1" fill-rule="nonzero"/></svg>